<svg xmlns="http://www.w3.org/2000/svg" viewBox="0 20 33.150001525878906 35.45000076293945" data-asc="1.095" width="33.150001525878906" height="35.45000076293945"><defs/><g fill="#f59e0b"><g transform="translate(0, 0)"><path d="M10.90 55.45Q10.50 55.45 10.13 55.17Q9.75 54.90 9.60 53.90Q9.05 50.10 8.13 46.02Q7.20 41.95 6.10 37.88Q5 33.80 3.85 30.10Q3.25 27.95 2.75 26.92Q2.25 25.90 1.70 25.15Q1.15 24.40 0.58 23.90Q0 23.40 0 22.95Q0 22.40 0.75 21.90Q1.50 21.40 2.60 20.98Q3.70 20.55 4.83 20.32Q5.95 20.10 6.70 20.10Q7.65 20.10 8.35 20.95Q9.05 21.80 9.73 23.80Q10.40 25.80 11.15 29.25L15.80 50.10L13.35 50.70L23.05 30.20Q23.75 28.75 24.07 27.80Q24.40 26.85 24.55 26.02Q24.70 25.20 24.80 24.20Q24.90 23.25 25.80 22.50Q26.70 21.75 27.88 21.17Q29.05 20.60 30.13 20.30Q31.20 20 31.70 20Q33.15 20 33.15 20.90Q33.15 21.40 32.70 22.25L17.45 52.15Q17.10 52.85 16.18 53.63Q15.25 54.40 13.93 54.92Q12.60 55.45 10.90 55.45Z"/></g></g></svg>