<svg version="1.1" xmlns="http://www.w3.org/2000/svg" style="display: block;" viewBox="0 0 1732 1024" width="433" height="256" preserveAspectRatio="none">
<defs>
	<linearGradient id="Gradient1" gradientUnits="userSpaceOnUse" x1="1319.04" y1="632.586" x2="1402.99" y2="679.808">
		<stop class="stop0" offset="0" stop-opacity="1" stop-color="rgb(146,135,126)"/>
		<stop class="stop1" offset="1" stop-opacity="1" stop-color="rgb(172,167,161)"/>
	</linearGradient>
	<linearGradient id="Gradient2" gradientUnits="userSpaceOnUse" x1="1490.35" y1="676.394" x2="1565.62" y2="642.157">
		<stop class="stop0" offset="0" stop-opacity="1" stop-color="rgb(109,105,100)"/>
		<stop class="stop1" offset="1" stop-opacity="1" stop-color="rgb(152,142,133)"/>
	</linearGradient>
	<linearGradient id="Gradient3" gradientUnits="userSpaceOnUse" x1="647.175" y1="650.994" x2="706.66" y2="652.688">
		<stop class="stop0" offset="0" stop-opacity="1" stop-color="rgb(128,117,108)"/>
		<stop class="stop1" offset="1" stop-opacity="1" stop-color="rgb(151,145,138)"/>
	</linearGradient>
	<linearGradient id="Gradient4" gradientUnits="userSpaceOnUse" x1="653.016" y1="686.184" x2="552.507" y2="652.389">
		<stop class="stop0" offset="0" stop-opacity="1" stop-color="rgb(127,118,112)"/>
		<stop class="stop1" offset="1" stop-opacity="1" stop-color="rgb(173,165,152)"/>
	</linearGradient>
	<linearGradient id="Gradient5" gradientUnits="userSpaceOnUse" x1="443.144" y1="678.332" x2="527.75" y2="680.98">
		<stop class="stop0" offset="0" stop-opacity="1" stop-color="rgb(148,138,132)"/>
		<stop class="stop1" offset="1" stop-opacity="1" stop-color="rgb(182,175,162)"/>
	</linearGradient>
	<linearGradient id="Gradient6" gradientUnits="userSpaceOnUse" x1="149.831" y1="612.357" x2="264.122" y2="688.29">
		<stop class="stop0" offset="0" stop-opacity="1" stop-color="rgb(119,111,104)"/>
		<stop class="stop1" offset="1" stop-opacity="1" stop-color="rgb(165,156,147)"/>
	</linearGradient>
</defs>
<path transform="translate(0,0)" fill="rgb(22,27,34)" d="M 0 0 L 1732 0 L 1732 1024 L 0 1024 L 0 0 z"/>
<path transform="translate(0,0)" fill="rgb(254,192,116)" d="M 736.898 216.406 C 788.811 211.523 835.729 239.611 841.075 294.722 C 843.722 322.018 843.411 365.008 825.1 387.619 C 809.567 406.8 780.755 420.069 756.253 422.55 C 728.377 425.09 706.568 416.683 685.117 399.723 C 663.773 382.847 655.149 366.252 652.656 339.29 C 650.062 311.229 651.131 275.892 670.454 253.575 C 691.289 229.511 705.99 219.687 736.898 216.406 z"/>
<path transform="translate(0,0)" fill="rgb(22,27,34)" d="M 739.296 255.231 C 750.983 254.025 764.339 254.221 774.325 261.142 C 803.379 281.281 801.771 340.301 784.529 367.69 C 778.206 377.733 769.219 383.538 758.052 385.823 C 727.154 387.692 707.896 377.771 701.985 344.915 C 697.96 322.54 697.918 290.414 710.018 270.192 C 715.545 260.955 729.239 257.172 739.296 255.231 z"/>
<path transform="translate(0,0)" fill="rgb(254,192,116)" d="M 1106.27 223.216 L 1106.83 221.029 C 1109.34 219.753 1296.41 219.255 1311.25 220.54 C 1323.12 247.363 1343.39 269.04 1351.48 297.611 C 1357.67 279.628 1369.27 264.859 1378.78 248.392 C 1383.42 240.363 1390.14 227.005 1395.53 220.166 C 1410.8 220.057 1426.55 220.471 1441.6 220.287 C 1428.96 246.369 1413.7 271.824 1400.29 297.493 C 1395.23 307.184 1379.22 330.341 1377.95 339.003 C 1374.58 361.88 1375.9 393.477 1375.99 416.947 C 1361.08 416.982 1345.66 416.809 1330.8 417.092 C 1330.77 395.947 1330.66 374.749 1330.57 353.649 C 1330.51 336.632 1323.8 328.438 1314.81 314.729 C 1301.11 293.848 1291.05 271.202 1278.75 249.58 C 1275.04 253.454 1275.99 251.649 1274.76 256.781 C 1254.25 258.741 1233.64 259.505 1213.04 259.071 L 1213.01 417.049 L 1166.14 416.952 C 1167.22 405.396 1166.45 387.353 1166.43 375.071 L 1166.35 297.437 C 1166.31 287.472 1165.81 268.242 1166.85 258.708 C 1156.45 258.865 1113.01 260.22 1105.62 257.665 L 1103.42 259.119 L 1102.05 258.742 L 1101.14 252.465 C 1100.91 241.536 1100.91 230.604 1101.13 219.676 C 1105.13 220.774 1103.75 219.843 1106.27 223.216 z"/>
<path transform="translate(0,0)" fill="rgb(21,21,3)" d="M 1101.13 219.676 C 1105.13 220.774 1103.75 219.843 1106.27 223.216 C 1106.68 229.849 1106.47 251.22 1105.62 257.665 L 1103.42 259.119 L 1102.05 258.742 L 1101.14 252.465 C 1100.91 241.536 1100.91 230.604 1101.13 219.676 z"/>
<path transform="translate(0,0)" fill="rgb(76,45,9)" d="M 1274.76 256.781 C 1274.06 248.664 1268.55 239.787 1267.2 229.932 C 1270.54 236.434 1274.86 243.352 1278.75 249.58 C 1275.04 253.454 1275.99 251.649 1274.76 256.781 z"/>
<path transform="translate(0,0)" fill="rgb(254,192,116)" d="M 354.456 220.068 C 386.888 220.839 419.896 219.348 452.391 220.023 C 466.059 220.307 480.477 220.499 494.1 220.143 C 493.884 232.945 493.501 246.073 493.695 258.852 C 462.816 258.181 429.253 259.249 397.996 259.304 C 398.621 273.3 398.482 288.141 398.336 302.147 C 427.903 302.061 461.558 301.415 490.85 302.973 C 490.491 314.383 489.926 325.785 489.154 337.175 C 462.729 336.604 435.908 338.236 408.75 337.524 L 398.652 337.232 C 398.766 352.14 398.67 367.048 398.363 381.953 C 430.834 381.668 464.545 380.88 496.886 382.547 C 496.482 394.039 496.246 405.537 496.18 417.036 L 354.019 416.842 C 355.362 361.837 353.199 306.052 353.771 250.985 C 353.878 240.685 354.434 230.38 354.456 220.068 z"/>
<path transform="translate(0,0)" fill="rgb(254,192,116)" d="M 944.05 216.415 C 959.722 215.172 984.662 217.775 998.455 225.716 C 1026.31 241.753 1031.97 261.333 1040.51 288.761 C 1027.49 291.42 1010.62 293.461 997.444 294.6 C 990.237 277.461 982.371 261.219 963.228 255.934 C 942.206 250.129 913.83 261.746 908.688 284.215 C 901.244 316.738 900.245 373.649 940.368 385.17 C 966.04 392.542 987.378 372.339 993.505 348.719 C 993.932 345.895 993.992 344.023 995.623 341.624 C 1000.34 340.254 1032.64 342.876 1039.53 343.327 C 1037.22 360.307 1035.38 376.589 1023.67 389.557 C 987.854 427.931 933.101 435.224 892.066 400.362 C 848.052 362.967 845.075 290.358 882.418 247.439 C 900.709 226.415 915.951 218.709 944.05 216.415 z"/>
<path transform="translate(0,0)" fill="rgb(254,192,116)" d="M 303.766 219.656 C 318.853 220.108 333.948 220.26 349.041 220.112 C 344.585 233.228 338.668 246.848 333.313 259.705 C 329.787 265.564 322.223 291.865 320.086 299.014 C 316.115 312.214 311.81 325.312 307.176 338.294 C 298.636 361.792 282.515 395.268 275.981 417.008 C 258.925 417.106 241.869 416.995 224.816 416.675 C 220.428 398.572 209.909 379.507 203.558 361.575 C 194.108 334.894 186.862 305.474 176.976 279.142 C 168.955 257.78 161.052 242.646 154.001 220.091 L 198.978 219.963 C 200.418 224.894 202.163 229.692 204.198 234.398 C 216.65 263.185 226.588 292.717 237.158 322.199 C 242.43 336.904 249 351.358 254.87 365.888 C 265.232 313.646 283.784 268.468 303.766 219.656 z"/>
<path transform="translate(0,0)" fill="url(#Gradient6)" d="M 184.554 580.447 C 199.32 580.036 219.868 579.548 234.019 582.57 C 275.767 591.488 281.156 652.197 268.285 684.906 C 264.253 695.153 258.916 701.693 249.718 707.472 C 232.771 716.996 189.709 715.983 168.92 716.339 C 169.57 671.35 168.064 625.983 168.065 580.914 C 173.411 580.878 179.174 580.604 184.554 580.447 z"/>
<path transform="translate(0,0)" fill="rgb(22,27,34)" d="M 189.055 596.445 C 203.787 596.959 234.996 597.177 246.27 607.153 C 267.584 626.012 263.861 671.401 247.337 691.894 C 230.251 706.147 208.256 703.354 187.034 703.002 C 189.538 670.507 186.767 631.298 189.055 596.445 z"/>
<path transform="translate(0,0)" fill="rgb(254,192,116)" d="M 517.95 220.058 C 533.131 219.835 549.028 220.185 564.263 220.3 C 563.818 274.241 563.785 328.184 564.161 382.125 C 593.471 381.653 622.787 381.69 652.095 382.235 L 652.191 416.889 L 517.866 416.94 C 518.57 351.707 517.95 285.378 517.95 220.058 z"/>
<path transform="translate(0,0)" fill="rgb(254,192,116)" d="M 1057.84 220.05 C 1069.61 220.039 1090.29 220.753 1101.13 219.676 C 1100.91 230.604 1100.91 241.536 1101.14 252.465 C 1100.55 269.764 1101.08 290.149 1101.07 307.639 L 1101.12 416.939 L 1057.26 417.005 C 1057.02 352.699 1056 283.98 1057.84 220.05 z"/>
<path transform="translate(0,0)" fill="url(#Gradient5)" d="M 447.044 612.382 C 449.51 612.412 450 612.698 452.379 613.501 C 455.415 615.913 456.737 620.102 458.269 623.75 C 463.68 623.586 476.271 617.137 483.841 615.627 C 520.57 608.299 532.915 645.034 530.219 674.591 C 528.279 695.858 520.355 713.55 496.402 716.861 C 480.818 716.896 470.686 715.275 458.099 705.294 C 457.739 718.292 456.597 732.772 455.809 745.816 C 452.307 745.908 447.646 745.611 444.055 745.49 C 444.076 720.313 443.908 695.137 443.551 669.962 C 443.266 653.848 442.6 636.111 443.577 619.956 C 443.735 617.335 445.576 614.545 447.044 612.382 z"/>
<path transform="translate(0,0)" fill="rgb(22,27,34)" d="M 486.181 628.352 C 523.176 627.255 526.698 676.706 507.966 698.743 C 502.485 705.19 496.688 705.139 488.989 705.239 C 445.983 703.252 444.803 637.152 486.181 628.352 z"/>
<path transform="translate(0,0)" fill="url(#Gradient4)" d="M 590.558 614.299 C 644.896 610.507 639.754 660.707 640.036 697.336 C 640.08 703.1 650.196 710.594 645.064 716.154 C 639.092 717.603 624.634 711.697 618.212 709.453 C 596.858 715.308 561.942 726.49 551.6 697.577 C 551.114 690.386 551.617 687.202 552.757 680.304 C 572.156 656.478 594.157 662.29 618.586 650.57 C 620.7 649.556 616.217 636.924 615.539 634.871 C 606.324 630.333 600.057 629.351 590.013 628.455 C 579.328 632.592 564.78 649.091 554.698 646.809 L 553.884 644.624 C 555.342 630.927 578.198 617.015 590.558 614.299 z"/>
<path transform="translate(0,0)" fill="rgb(22,27,34)" d="M 603.596 670.383 C 608.471 669.94 614.071 670.337 619.016 670.537 C 618.774 694.344 611.021 704.682 586.08 706.188 C 580.518 705.691 577.717 705.269 573.039 702.052 C 565.912 697.15 565.844 688.367 571.238 681.947 C 578.621 673.16 592.745 671.402 603.596 670.383 z"/>
<path transform="translate(0,0)" fill="rgb(166,156,146)" d="M 1155.62 615.084 C 1193.23 612.457 1207.42 638.765 1210.43 671.852 C 1184.1 671.441 1157.3 672.371 1130.79 672.079 C 1138.78 703.463 1152.08 714.61 1183.77 698.47 C 1186.15 697.019 1188.51 695.547 1190.86 694.054 C 1195.22 691.32 1197.74 689.624 1202.94 690.827 L 1204.04 692.635 C 1202.81 702.284 1186.25 711.561 1177.47 714.412 C 1165.9 718.17 1150.82 716.561 1140 711.266 C 1109.94 696.547 1109.1 647.969 1132.89 627.315 C 1140.77 620.44 1146.18 618.082 1155.62 615.084 z"/>
<path transform="translate(0,0)" fill="rgb(22,27,34)" d="M 1157.4 629.191 C 1177.22 627.252 1184.92 637.584 1191.32 654.456 C 1183.29 655.221 1175.27 655.55 1167.21 655.938 C 1154.61 656.2 1144.17 656.125 1131.64 654.729 L 1132.23 653.222 C 1137.8 638.967 1143.65 635.19 1157.4 629.191 z"/>
<path transform="translate(0,0)" fill="rgb(166,156,146)" d="M 1435.06 615.247 C 1474.88 611.591 1483.83 638.166 1487.91 671.626 C 1462.85 671.986 1437.79 672.14 1412.73 672.086 C 1413.14 677.12 1414.57 692.61 1417.43 696.105 C 1427.81 708.766 1451.25 707.219 1463.46 699.25 C 1468.4 695.08 1471.97 691.269 1478.49 690.755 C 1489.02 696.635 1463.06 714.984 1454.08 716.027 C 1433.87 718.375 1412.24 714.926 1402.99 694.328 C 1389.62 664.538 1398.57 621.794 1435.06 615.247 z"/>
<path transform="translate(0,0)" fill="rgb(22,27,34)" d="M 1439.29 629.306 C 1451.2 628.775 1469.04 636.779 1471.51 649.108 C 1471.15 652.015 1470.53 654.188 1467.41 654.662 C 1461.11 655.616 1454.26 655.647 1447.89 655.876 C 1435.59 656.125 1425.06 656.162 1412.82 654.773 C 1415.72 638.04 1422.75 631.815 1439.29 629.306 z"/>
<path transform="translate(0,0)" fill="rgb(166,156,146)" d="M 1035.94 579.304 C 1068.23 576.311 1091.27 585.689 1096.29 624.573 C 1096.51 626.262 1094.59 627.3 1093.33 628.114 C 1092.39 628.13 1091.29 628.149 1090.03 628.171 C 1082.57 620.439 1076.65 603.111 1067 597.997 C 1043.9 585.752 1018.84 592.574 1006.78 616.314 C 997.588 634.416 997.59 655.328 1002.76 674.649 C 1005.99 686.703 1014.71 696.472 1025.61 702.241 C 1034.95 706.829 1052.37 706.044 1062.34 702.805 C 1078.95 694.868 1085.73 671.494 1093.82 670.414 C 1100.96 676.497 1092.61 691.873 1088.61 698.02 C 1071.9 723.683 1029.68 722.021 1006.74 706.367 C 976.573 685.783 975.043 632.14 994.529 603.926 C 1004.45 589.663 1018.78 582.025 1035.94 579.304 z"/>
<path transform="translate(0,0)" fill="rgb(166,156,146)" d="M 373.088 615.196 C 387.112 613.832 396.513 615.379 408.222 624.265 C 413.238 628.072 424.433 641.361 419.391 647.567 C 411.7 648.148 393.832 630.005 383.182 629.354 C 374.043 628.796 360.576 630.691 358.249 641.621 C 356.013 652.126 366.446 654.99 374.024 657.165 C 390.018 662.397 408.799 665.397 419.688 679.134 C 420.404 689.551 420.612 692.997 417.35 702.954 C 406.614 713.71 397.833 715.952 383.235 717.06 C 367.87 715.755 346.683 712.779 340.037 696.648 C 338.343 692.536 337.753 684.568 342.872 682.756 C 354.917 685.441 361.302 707.047 378.583 705.841 C 385.781 705.339 397.327 705.609 403.114 700.382 C 405.819 696.168 405.064 685.747 405.097 680.281 C 384.44 673.343 356.839 673.597 343.63 656.74 C 338.325 630.612 348.997 621.189 373.088 615.196 z"/>
<path transform="translate(0,0)" fill="url(#Gradient3)" d="M 672.515 588.672 C 684.113 590.628 682.098 606.355 681.95 615.129 C 690.287 614.806 705.812 613.639 710.022 622.914 C 708.622 633.193 688.985 631.496 681.276 631.408 C 681.135 655.766 680.71 678.558 682.299 702.903 C 688.541 703.479 700.799 703.319 706.051 706.979 C 708.616 708.766 707.992 711.406 708.031 714.447 C 698.756 716.381 673.482 716.562 667.345 709.148 C 656.453 695.987 661.777 666.947 660.634 650.459 C 659.325 631.579 656.339 636.563 644.156 624.916 C 649.347 617.205 657.99 610.628 662.401 601.547 C 665.344 595.489 666.655 592.113 672.515 588.672 z"/>
<path transform="translate(0,0)" fill="rgb(166,156,146)" d="M 763.461 615.193 C 783.092 612.663 798.903 623.706 808.782 639.91 C 810.485 642.702 811.163 644.239 810.393 647.299 C 802.105 650.723 782.556 631.27 767.504 626.865 C 758.488 629.189 751.662 631.825 744.637 638.723 C 730.281 652.82 731.841 683.847 745.799 697.675 C 753.899 705.7 764.495 706.219 775.412 705.825 C 778.607 703.98 782.298 701.205 785.369 699.03 C 790.326 694.911 803.82 675.966 809.748 683.389 C 810.45 687.919 808.662 691.587 806.277 695.424 C 784.819 729.366 730.224 722.235 721.946 681.532 C 715.354 649.12 729.056 621.614 763.461 615.193 z"/>
<path transform="translate(0,0)" fill="url(#Gradient2)" d="M 1507.63 612.21 C 1514.13 613.704 1525.52 618.046 1531.49 621.069 C 1538.66 619.212 1548.75 613.693 1555.24 616.311 C 1557.96 618.978 1558.68 619.474 1559.79 623.17 C 1557.44 634.66 1539.03 631.503 1529.83 640.458 C 1526.47 646.699 1527.8 675.599 1527.88 684.5 L 1527.62 716.91 C 1520.28 716.827 1512.69 716.517 1505.32 716.319 C 1506.65 680.61 1503.65 650.325 1507.63 612.21 z"/>
<path transform="translate(0,0)" fill="url(#Gradient1)" d="M 1349.38 587.431 C 1358.04 592.082 1356.94 607.58 1357 616.013 C 1366.1 615.756 1383.72 613.363 1387.98 622.953 C 1384.98 633.315 1364.39 631.441 1355.93 630.229 C 1356.12 650.142 1354.1 684.87 1357.2 703.797 C 1368.73 704.172 1379.98 704.443 1390.49 709.426 C 1390.16 710.016 1388.96 711.364 1388.46 711.959 C 1383.4 714.301 1377.99 714.671 1372.5 714.756 C 1365.09 714.872 1352.61 715.89 1347.19 710.011 C 1340.57 702.836 1341.85 645.021 1342.51 632.347 C 1335.15 632.684 1326.38 631.904 1322.31 624.557 C 1322.72 616.107 1340.48 614.516 1341.08 612.978 C 1345.39 602.009 1339.57 597.691 1349.38 587.431 z"/>
<path transform="translate(0,0)" fill="rgb(125,115,110)" d="M 1224.94 716.407 L 1224.23 651.491 C 1224.14 640.869 1223.67 628.663 1224.75 618.102 C 1225.09 614.737 1225.61 614.925 1227.93 613.347 C 1237.1 611.704 1245.28 615.188 1247.94 624.437 C 1250.64 629.746 1251.69 629.71 1257.25 632.808 C 1256.03 633.84 1254.85 634.915 1253.71 636.033 C 1242.39 647.274 1246.02 698.984 1245.97 716.674 C 1238.57 716.966 1232.36 716.721 1224.94 716.407 z"/>
<path transform="translate(0,0)" fill="rgb(125,115,110)" d="M 300.15 613.094 L 321.083 614.018 C 323.144 646.603 320.982 683.82 321.432 716.771 L 300.3 717.153 C 299.427 682.473 299.377 647.776 300.15 613.094 z"/>
<path transform="translate(0,0)" fill="rgb(166,156,146)" d="M 1247.94 624.437 C 1256.37 618.272 1273.91 613.11 1284.24 614.864 C 1291.06 616.021 1296.52 620.134 1300.36 625.782 C 1311.12 641.624 1307.32 694.191 1308.53 715.744 C 1303.22 716.27 1297.46 716.968 1292.16 717.106 C 1292.36 696.605 1292.79 675.966 1293.1 655.459 C 1293.46 631.4 1279.49 619.626 1257.25 632.808 C 1251.69 629.71 1250.64 629.746 1247.94 624.437 z"/>
<path transform="translate(0,0)" fill="rgb(166,156,146)" d="M 830.05 581.029 L 844.927 581.156 C 844.866 587.964 842.663 624.758 843.947 628.433 C 844.552 631.836 844.916 636.985 848.294 638.774 C 841.239 649.845 843.648 701.228 843.746 716.967 C 839.586 716.813 834.566 716.27 830.344 715.93 C 831.794 702.41 830.535 677.412 830.286 663.426 C 829.776 635.963 829.697 608.494 830.05 581.029 z"/>
<path transform="translate(0,0)" fill="rgb(166,156,146)" d="M 843.947 628.433 C 853.345 619.226 866.935 615.171 880.655 615.069 C 919.679 614.78 904.106 682.754 908.192 707.617 C 908.925 712.074 903.533 717.834 898.345 717.369 C 891.283 711.564 902.091 642.127 890.784 632.733 C 878.456 622.491 858.504 628.43 848.294 638.774 C 844.916 636.985 844.552 631.836 843.947 628.433 z"/>
<path transform="translate(0,0)" fill="rgb(125,115,110)" d="M 301.88 579.35 C 308.914 578.886 314.983 579.593 321.98 580.212 C 321.321 587.309 320.488 594.389 319.482 601.445 C 315.374 601.137 305.76 601.848 301.233 602.082 C 300.792 598.097 300.416 594.106 300.105 590.109 C 299.798 585.988 299.288 582.354 301.88 579.35 z"/>
</svg>