<svg xmlns="http://www.w3.org/2000/svg" viewBox="0 14.5 199.5 34.599998474121094" data-asc="0.976" width="199.5" height="34.599998474121094"><defs/><g fill="#f59e0b"><g transform="translate(0, 0)"><path d="M17.30 48.80L12.65 48.80L0 14.95L6.35 14.95L10.55 27.05Q12.15 31.75 13.30 35.32Q14.45 38.90 15.05 40.80Q15.60 38.90 16.72 35.42Q17.85 31.95 19.55 27.15L23.90 14.95L29.95 14.95L17.30 48.80ZM33 14.95L53.10 14.95L53.10 19.45L38.95 19.45L38.95 28.90L50.60 28.90L49.85 33.45L38.95 33.45L38.95 44.30L53.85 44.30L53.85 48.80L33 48.80L33 14.95ZM58.65 14.95L64.60 14.95L64.60 44.30L77.25 44.30L77.25 48.80L58.65 48.80L58.65 14.95ZM91.80 14.50Q95.55 14.50 98.20 15.70Q100.85 16.90 102.58 19.10Q104.30 21.30 105.10 24.47Q105.90 27.65 105.90 31.60Q105.90 35.50 105.03 38.72Q104.15 41.95 102.33 44.25Q100.50 46.55 97.72 47.82Q94.95 49.10 91.15 49.10Q87.40 49.10 84.72 47.97Q82.05 46.85 80.33 44.67Q78.60 42.50 77.80 39.40Q77 36.30 77 32.30Q77 28.40 77.88 25.12Q78.75 21.85 80.58 19.47Q82.40 17.10 85.20 15.80Q88 14.50 91.80 14.50M91.10 19.10Q88.90 19.10 87.45 20.07Q86 21.05 85.10 22.75Q84.20 24.45 83.83 26.75Q83.45 29.05 83.45 31.75Q83.45 34.30 83.80 36.60Q84.15 38.90 85.08 40.65Q86 42.40 87.63 43.45Q89.25 44.50 91.85 44.50Q94 44.50 95.47 43.55Q96.95 42.60 97.85 40.95Q98.75 39.30 99.13 37.02Q99.50 34.75 99.50 32.10Q99.50 29.55 99.15 27.20Q98.80 24.85 97.88 23.05Q96.95 21.25 95.33 20.17Q93.70 19.10 91.10 19.10ZM130.25 21.75Q129.05 20.45 127.73 19.77Q126.40 19.10 124.65 19.10Q122.50 19.10 121.03 20.07Q119.55 21.05 118.65 22.77Q117.75 24.50 117.35 26.80Q116.95 29.10 116.95 31.75Q116.95 34.40 117.33 36.70Q117.70 39 118.63 40.75Q119.55 42.50 121.13 43.50Q122.70 44.50 125.10 44.50Q126.25 44.50 127.30 44.30Q128.35 44.10 129.23 43.88Q130.10 43.65 130.68 43.45Q131.25 43.25 131.40 43.20L132.80 47.40L132.15 47.65Q131.50 47.90 130.33 48.22Q129.15 48.55 127.53 48.82Q125.90 49.10 123.95 49.10Q117.25 49.10 113.88 44.82Q110.50 40.55 110.50 32.30Q110.50 28.35 111.40 25.07Q112.30 21.80 114.13 19.45Q115.95 17.10 118.73 15.80Q121.50 14.50 125.25 14.50Q128.25 14.50 130.18 15.60Q132.10 16.70 133.30 18.10L130.25 21.75ZM137.80 14.95L143.75 14.95L143.75 48.80L137.80 48.80L137.80 14.95ZM171.35 14.95L170.60 19.45L162.20 19.45L162.20 48.80L156.30 48.80L156.30 19.45L147.75 19.45L147.75 14.95L171.35 14.95ZM182.90 35.85L172.40 14.95L178.85 14.95L185.95 30.30L193.20 14.95L199.50 14.95L188.85 36.10L188.85 48.80L182.90 48.80L182.90 35.85Z"/></g></g></svg>